<svg xmlns="http://www.w3.org/2000/svg" xmlns:xlink="http://www.w3.org/1999/xlink" viewBox="0 0 291.5 74.79"><defs><style>.cls-1,.cls-2{stroke:#767677;}.cls-1,.cls-2,.cls-3,.cls-4{stroke-miterlimit:10;}.cls-1{fill:url(#linear-gradient);}.cls-2{fill:url(#New_Gradient_Swatch_2);}.cls-3{fill:#fff;stroke:#424143;stroke-width:0.35px;}.cls-4{stroke:#595a5c;stroke-width:0.1px;fill:url(#linear-gradient-2);}.cls-5{fill:url(#linear-gradient-3);}.cls-6{fill:#424143;}</style><linearGradient id="linear-gradient" x1="40.74" y1="61.88" x2="40.74" y2="13.22" gradientUnits="userSpaceOnUse"><stop offset="0" stop-color="#fff"/><stop offset="0.17" stop-color="#eee"/><stop offset="0.49" stop-color="#c3c3c3"/><stop offset="0.83" stop-color="#919191"/></linearGradient><linearGradient id="New_Gradient_Swatch_2" x1="40.74" y1="18.81" x2="40.74" y2="13.22" gradientUnits="userSpaceOnUse"><stop offset="0.33" stop-color="#939598"/><stop offset="0.39" stop-color="#a3a5a7"/><stop offset="0.53" stop-color="#c5c6c8"/><stop offset="0.61" stop-color="#d2d3d4"/></linearGradient><linearGradient id="linear-gradient-2" x1="45.59" y1="28.2" x2="54.5" y2="38.09" gradientUnits="userSpaceOnUse"><stop offset="0.05" stop-color="#949494"/><stop offset="0.34" stop-color="#6a696a"/><stop offset="0.58" stop-color="#4d4c4e"/><stop offset="0.72" stop-color="#424143"/></linearGradient><linearGradient id="linear-gradient-3" x1="47.05" y1="29.12" x2="51.6" y2="42.3" gradientUnits="userSpaceOnUse"><stop offset="0.05" stop-color="#424143"/><stop offset="0.22" stop-color="#4f4f51"/><stop offset="0.41" stop-color="#595a5c"/></linearGradient></defs><g id="Vector_Graphics" data-name="Vector Graphics"><rect class="cls-1" x="13.71" y="13.22" width="54.07" height="48.66"/><rect class="cls-2" x="13.71" y="13.22" width="54.07" height="5.59"/><polygon points="59.84 61.01 66.7 54.25 66.7 61.01 59.84 61.01"/><path class="cls-3" d="M46.36,41.34,32.91,53c-1.51,1.29-2.1,1.76-3.55,1.44a.49.49,0,0,1-.19-.07,2.87,2.87,0,0,1-1.16.85S26.12,56,26,56a1.84,1.84,0,0,1-1-.37,1.34,1.34,0,0,1-.15-1.39l1.06-1.64a2.72,2.72,0,0,1,.81-.62,3.64,3.64,0,0,1-.3-.73c-.29-1.18.43-2,1.93-3.26L41.81,36.29c1.5-1.3,3.07-2,3.52-1.44l2.92,3.23C48.69,38.57,47.86,40,46.36,41.34Z"/><path class="cls-4" d="M56.39,26.71a3.71,3.71,0,0,0-5.24-.3L45.44,31.5l-1.62-1.7L39,34.38l9.06,9.5,4.81-4.58-2.3-2.41L56.1,32A3.72,3.72,0,0,0,56.39,26.71Z"/><path class="cls-5" d="M50.48,36.88,56,32.13a4.49,4.49,0,0,0,1.29-2.38h-.43a5.4,5.4,0,0,1-1.08,2.14l-5.39,4.47-4.58-5.23-.48.53,6.56,7.6L47.92,43l-8.68-9.07-.39.37,9,9.62,4.87-4.6Z"/><polygon class="cls-6" points="53.56 39.39 53.56 39.39 53.54 39.4 53.56 39.39"/></g></svg>