<svg xmlns="http://www.w3.org/2000/svg" xmlns:xlink="http://www.w3.org/1999/xlink" viewBox="0 0 291.5 74.79"><defs><style>.cls-1,.cls-2{stroke:#767677;stroke-miterlimit:10;}.cls-1{fill:url(#linear-gradient);}.cls-2{fill:url(#New_Gradient_Swatch_2);}.cls-3{fill:none;stroke:#424143;}.cls-4{fill:#595a5c;}.cls-5{fill:#767677;}</style><linearGradient id="linear-gradient" x1="40.9" y1="60.7" x2="40.9" y2="12.04" gradientUnits="userSpaceOnUse"><stop offset="0" stop-color="#fff"/><stop offset="0.17" stop-color="#eee"/><stop offset="0.49" stop-color="#c3c3c3"/><stop offset="0.83" stop-color="#919191"/></linearGradient><linearGradient id="New_Gradient_Swatch_2" x1="40.9" y1="17.62" x2="40.9" y2="12.04" gradientUnits="userSpaceOnUse"><stop offset="0.33" stop-color="#939598"/><stop offset="0.39" stop-color="#a3a5a7"/><stop offset="0.53" stop-color="#c5c6c8"/><stop offset="0.61" stop-color="#d2d3d4"/></linearGradient></defs><g id="Vector_Graphics" data-name="Vector Graphics"><rect class="cls-1" x="13.87" y="12.04" width="54.07" height="48.66"/><rect class="cls-2" x="13.87" y="12.04" width="54.07" height="5.59"/><polygon points="60.01 59.83 66.87 53.07 66.87 59.83 60.01 59.83"/><line class="cls-3" x1="35.65" y1="44.88" x2="56.96" y2="23.12"/><path class="cls-4" d="M57.39,46.72H50.91V31.81H49.28v0H35.77V25.05H31.45v6.74H25.22V34h6.23V48.88H46.59v7h4.32v-7h6.48Zm-21.62,0V34H46.59V46.72Z"/><path class="cls-5" d="M57.37,44.65H50.88V29.74H49.25v0H35.74V23H31.42v6.74H25.19v2.16h6.23V46.82H46.56v7h4.32v-7h6.49Zm-21.63,0V31.88H46.56V44.65Z"/></g></svg>