<svg xmlns="http://www.w3.org/2000/svg" xmlns:xlink="http://www.w3.org/1999/xlink" viewBox="0 0 291.5 74.79"><defs><style>.cls-1,.cls-10,.cls-13,.cls-14,.cls-2,.cls-6,.cls-7,.cls-9{stroke:#767677;}.cls-1,.cls-10,.cls-11,.cls-13,.cls-14,.cls-2,.cls-3,.cls-4,.cls-5,.cls-6,.cls-7,.cls-9{stroke-miterlimit:10;}.cls-1{fill:url(#New_Gradient_Swatch_3);}.cls-2{fill:url(#linear-gradient);}.cls-11,.cls-12,.cls-3,.cls-4,.cls-5,.cls-8{fill:none;stroke:#424143;}.cls-4{stroke-dasharray:3.72 2.79;}.cls-5{stroke-dasharray:3.24 2.43;}.cls-6{fill:url(#New_Gradient_Swatch_3-2);}.cls-7{fill:url(#linear-gradient-2);}.cls-8{stroke-linejoin:round;stroke-dasharray:3.36 2.4;}.cls-9{fill:url(#New_Gradient_Swatch_3-3);}.cls-10{fill:url(#linear-gradient-3);}.cls-11,.cls-12{stroke-linecap:square;}.cls-12{stroke-miterlimit:1;}.cls-13{fill:url(#New_Gradient_Swatch_3-4);}.cls-14{fill:url(#linear-gradient-4);}</style><linearGradient id="New_Gradient_Swatch_3" x1="40.33" y1="61.2" x2="40.33" y2="12.54" gradientUnits="userSpaceOnUse"><stop offset="0" stop-color="#fff"/><stop offset="0.37" stop-color="#cdcdcd"/><stop offset="0.67" stop-color="#ababab"/><stop offset="0.83" stop-color="#9e9e9e"/></linearGradient><linearGradient id="linear-gradient" x1="40.33" y1="18.13" x2="40.33" y2="12.54" gradientUnits="userSpaceOnUse"><stop offset="0.33" stop-color="#939598"/><stop offset="0.39" stop-color="#a3a5a7"/><stop offset="0.53" stop-color="#c5c6c8"/><stop offset="0.61" stop-color="#d2d3d4"/></linearGradient><linearGradient id="New_Gradient_Swatch_3-2" x1="110.61" y1="61.2" x2="110.61" y2="12.54" xlink:href="#New_Gradient_Swatch_3"/><linearGradient id="linear-gradient-2" x1="110.61" y1="18.13" x2="110.61" y2="12.54" xlink:href="#linear-gradient"/><linearGradient id="New_Gradient_Swatch_3-3" x1="251.17" y1="61.2" x2="251.17" y2="12.54" xlink:href="#New_Gradient_Swatch_3"/><linearGradient id="linear-gradient-3" x1="251.17" y1="18.13" x2="251.17" y2="12.54" xlink:href="#linear-gradient"/><linearGradient id="New_Gradient_Swatch_3-4" x1="180.89" y1="61.2" x2="180.89" y2="12.54" xlink:href="#New_Gradient_Swatch_3"/><linearGradient id="linear-gradient-4" x1="180.89" y1="18.13" x2="180.89" y2="12.54" xlink:href="#linear-gradient"/></defs><g id="Vector_Graphics" data-name="Vector Graphics"><rect class="cls-1" x="13.3" y="12.54" width="54.07" height="48.66"/><rect class="cls-2" x="13.3" y="12.54" width="54.07" height="5.59"/><polygon points="59.43 60.33 66.29 53.58 66.29 60.33 59.43 60.33"/><polyline class="cls-3" points="54.7 47.63 54.7 51.95 50.38 51.95"/><line class="cls-4" x1="44.35" y1="51.95" x2="33.3" y2="51.95"/><polyline class="cls-3" points="30.28 51.95 25.96 51.95 25.96 47.63"/><line class="cls-5" x1="25.96" y1="42.37" x2="25.96" y2="32.73"/><polyline class="cls-3" points="25.96 30.1 25.96 25.77 30.28 25.77"/><line class="cls-4" x1="36.31" y1="25.78" x2="47.36" y2="25.78"/><polyline class="cls-3" points="50.38 25.77 54.7 25.77 54.7 30.1"/><line class="cls-5" x1="54.7" y1="35.36" x2="54.7" y2="45"/><rect class="cls-6" x="83.58" y="12.54" width="54.07" height="48.66"/><rect class="cls-7" x="83.58" y="12.54" width="54.07" height="5.59"/><polygon points="129.71 60.33 136.57 53.58 136.57 60.33 129.71 60.33"/><path class="cls-8" d="M127.78,41.84C129,34,122.29,26.5,112.8,25S94.64,28.71,93.43,36.52s5.51,15.34,15,16.81S126.58,49.65,127.78,41.84Z"/><rect class="cls-9" x="224.14" y="12.54" width="54.07" height="48.66"/><rect class="cls-10" x="224.14" y="12.54" width="54.07" height="5.59"/><polyline class="cls-11" points="253.45 48.92 253.45 54.27 248.88 54.27 248.88 46.83"/><line class="cls-11" x1="248.88" y1="41.24" x2="248.88" y2="32.79"/><line class="cls-12" x1="253.45" y1="44.38" x2="253.45" y2="33.9"/><polyline class="cls-11" points="248.89 26.74 248.89 22.28 253.45 22.28 253.45 28.48"/><polygon points="270.27 60.09 277.13 53.34 277.13 60.09 270.27 60.09"/><rect class="cls-13" x="153.86" y="12.54" width="54.07" height="48.66"/><rect class="cls-14" x="153.86" y="12.54" width="54.07" height="5.59"/><polyline class="cls-11" points="168.66 39.15 163.14 39.15 163.14 34.59 170.82 34.59"/><line class="cls-11" x1="176.59" y1="34.59" x2="185.31" y2="34.59"/><line class="cls-12" x1="173.35" y1="39.15" x2="184.16" y2="39.15"/><polyline class="cls-11" points="191.56 34.59 196.16 34.59 196.16 39.15 189.76 39.15"/><polygon points="200.07 60.21 206.93 53.45 206.93 60.21 200.07 60.21"/></g></svg>