<svg xmlns="http://www.w3.org/2000/svg" xmlns:xlink="http://www.w3.org/1999/xlink" viewBox="0 0 291.5 74.79"><defs><style>.cls-1,.cls-2,.cls-4,.cls-5{stroke:#767677;}.cls-1,.cls-2,.cls-3,.cls-4,.cls-5,.cls-6{stroke-miterlimit:10;}.cls-1{fill:url(#New_Gradient_Swatch_3);}.cls-2{fill:url(#linear-gradient);}.cls-3,.cls-6{stroke:#424143;}.cls-3{stroke-width:0.75px;fill:url(#linear-gradient-2);}.cls-4{fill:url(#New_Gradient_Swatch_3-2);}.cls-5{fill:url(#linear-gradient-3);}.cls-6{stroke-width:0.5px;fill:url(#linear-gradient-4);}.cls-7{fill:url(#linear-gradient-5);}.cls-8{fill:#424143;}</style><linearGradient id="New_Gradient_Swatch_3" x1="108.1" y1="60.38" x2="108.1" y2="11.72" gradientUnits="userSpaceOnUse"><stop offset="0" stop-color="#fff"/><stop offset="0.37" stop-color="#cdcdcd"/><stop offset="0.67" stop-color="#ababab"/><stop offset="0.83" stop-color="#9e9e9e"/></linearGradient><linearGradient id="linear-gradient" x1="108.1" y1="17.31" x2="108.1" y2="11.72" gradientUnits="userSpaceOnUse"><stop offset="0.33" stop-color="#838384"/><stop offset="0.43" stop-color="#a4a4a5"/><stop offset="0.55" stop-color="#c5c6c7"/><stop offset="0.61" stop-color="#d2d3d4"/></linearGradient><linearGradient id="linear-gradient-2" x1="92.84" y1="37.64" x2="126" y2="37.64" gradientUnits="userSpaceOnUse"><stop offset="0.17" stop-color="#575757"/><stop offset="0.28" stop-color="#646464"/><stop offset="0.47" stop-color="#868686"/><stop offset="0.73" stop-color="#bebebe"/><stop offset="1" stop-color="#fff"/></linearGradient><linearGradient id="New_Gradient_Swatch_3-2" x1="41.31" y1="60.38" x2="41.31" y2="11.72" xlink:href="#New_Gradient_Swatch_3"/><linearGradient id="linear-gradient-3" x1="41.31" y1="17.31" x2="41.31" y2="11.72" xlink:href="#linear-gradient"/><linearGradient id="linear-gradient-4" x1="33.59" y1="33.46" x2="48.81" y2="48.59" gradientUnits="userSpaceOnUse"><stop offset="0.11" stop-color="#545454"/><stop offset="0.23" stop-color="#c7c7c7"/><stop offset="0.29" stop-color="#a4a4a4"/><stop offset="0.36" stop-color="#838383"/><stop offset="0.42" stop-color="#6b6b6b"/><stop offset="0.48" stop-color="#5c5c5c"/><stop offset="0.53" stop-color="#575757"/><stop offset="0.74" stop-color="#5f5f5f"/><stop offset="0.82" stop-color="#636363"/></linearGradient><linearGradient id="linear-gradient-5" x1="35.15" y1="29.39" x2="46.71" y2="29.39" gradientUnits="userSpaceOnUse"><stop offset="0.09" stop-color="#424143"/><stop offset="0.1" stop-color="#484749"/><stop offset="0.26" stop-color="#7d7d7d"/><stop offset="0.52" stop-color="#424143"/><stop offset="0.58" stop-color="#59595a"/><stop offset="0.66" stop-color="#737373"/><stop offset="0.71" stop-color="#7d7d7d"/><stop offset="0.73" stop-color="#777"/><stop offset="0.76" stop-color="#686868"/><stop offset="0.79" stop-color="#4d4d4d"/><stop offset="0.83" stop-color="#292929"/><stop offset="0.83" stop-color="#212121"/></linearGradient></defs><g id="Vector_Graphics" data-name="Vector Graphics"><rect class="cls-1" x="81.06" y="11.72" width="54.07" height="48.66"/><rect class="cls-2" x="81.06" y="11.72" width="54.07" height="5.59"/><polygon points="127.2 59.51 134.06 52.75 134.06 59.51 127.2 59.51"/><rect class="cls-3" x="92.84" y="26.1" width="33.16" height="23.07"/><rect class="cls-4" x="14.28" y="11.72" width="54.07" height="48.66"/><rect class="cls-5" x="14.28" y="11.72" width="54.07" height="5.59"/><polygon points="60.41 59.51 67.27 52.75 67.27 59.51 60.41 59.51"/><path class="cls-6" d="M56.16,38.26l-9,8.87L40,54.24a3.05,3.05,0,0,1-3.87-.39l-1-1-7.61-7.7s0,0,0,0a3,3,0,0,1,.41-3.83L41.13,28l2.47-2.44Z"/><path class="cls-7" d="M45.36,40.17a.79.79,0,0,1-.72-.45.78.78,0,0,1,0-.74c.33-1.27,1.43-12.69-1.83-17.09a3.75,3.75,0,0,0-3.2-1.65,1.87,1.87,0,0,0-1.49.73c-2,2.37-1.37,8.51-1,11a.8.8,0,0,1-.66.93c-.45.08-.83.66-.9.22S34,23.35,36.88,19.94a3.5,3.5,0,0,1,2.71-1.33c2.11-.08,5,1.06,6.36,6.55,1.12,4.56,1,14.32-.23,14.93A.9.9,0,0,1,45.36,40.17Z"/><path class="cls-8" d="M52.46,34.66c1.57.13,2,1.59,3.7,3.21a8.58,8.58,0,0,1,3.38,3.45A13.89,13.89,0,0,1,61,46.59,23.31,23.31,0,0,1,60.8,52l0,.12a3.3,3.3,0,1,1-6.54-1A3.59,3.59,0,0,1,54.6,50a12.91,12.91,0,0,0,1.88-7.62A15.47,15.47,0,0,0,52.46,34.66Z"/></g></svg>