<svg xmlns="http://www.w3.org/2000/svg" xmlns:xlink="http://www.w3.org/1999/xlink" viewBox="0 0 291.5 74.79"><defs><style>.cls-1,.cls-14,.cls-15,.cls-2,.cls-3,.cls-4,.cls-5,.cls-6,.cls-7,.cls-8{stroke:#767677;}.cls-1,.cls-14,.cls-15,.cls-2,.cls-3,.cls-4,.cls-5,.cls-6,.cls-7{stroke-miterlimit:10;}.cls-1{fill:url(#New_Gradient_Swatch_1);}.cls-2{fill:url(#New_Gradient_Swatch_2);}.cls-3,.cls-8,.cls-9{fill:none;}.cls-4{fill:url(#New_Gradient_Swatch_1-2);}.cls-5{fill:url(#New_Gradient_Swatch_2-2);}.cls-6{fill:url(#linear-gradient);}.cls-7{fill:url(#New_Gradient_Swatch_2-3);}.cls-8{stroke-linejoin:round;}.cls-10{fill:#fff;}.cls-11{fill:#595a5c;}.cls-12{fill:url(#linear-gradient-2);}.cls-13{fill:#424143;}.cls-14{fill:url(#linear-gradient-3);}.cls-15{fill:url(#New_Gradient_Swatch_2-4);}.cls-16{fill:#767677;stroke:#595a5c;stroke-width:0.25px;}.cls-17{fill:url(#radial-gradient);}.cls-18{fill:url(#New_Gradient_Swatch_4);}</style><linearGradient id="New_Gradient_Swatch_1" x1="110.7" y1="62.23" x2="110.7" y2="13.57" gradientUnits="userSpaceOnUse"><stop offset="0" stop-color="#fff"/><stop offset="0.15" stop-color="#e3e3e3"/><stop offset="0.46" stop-color="#acacac"/><stop offset="0.7" stop-color="#8a8a8a"/><stop offset="0.83" stop-color="#7d7d7d"/></linearGradient><linearGradient id="New_Gradient_Swatch_2" x1="110.7" y1="19.16" x2="110.7" y2="13.57" gradientUnits="userSpaceOnUse"><stop offset="0.33" stop-color="#939598"/><stop offset="0.39" stop-color="#a3a5a7"/><stop offset="0.53" stop-color="#c5c6c8"/><stop offset="0.61" stop-color="#d2d3d4"/></linearGradient><linearGradient id="New_Gradient_Swatch_1-2" x1="180.65" y1="62.23" x2="180.65" y2="13.57" xlink:href="#New_Gradient_Swatch_1"/><linearGradient id="New_Gradient_Swatch_2-2" x1="180.65" y1="19.16" x2="180.65" y2="13.57" xlink:href="#New_Gradient_Swatch_2"/><linearGradient id="linear-gradient" x1="250.6" y1="62.23" x2="250.6" y2="13.57" gradientUnits="userSpaceOnUse"><stop offset="0" stop-color="#fff"/><stop offset="0.38" stop-color="#c8c8c8"/><stop offset="0.67" stop-color="#a6a6a6"/><stop offset="0.83" stop-color="#999"/></linearGradient><linearGradient id="New_Gradient_Swatch_2-3" x1="250.6" y1="19.16" x2="250.6" y2="13.57" xlink:href="#New_Gradient_Swatch_2"/><linearGradient id="linear-gradient-2" x1="262.39" y1="38.54" x2="254.86" y2="23.09" gradientUnits="userSpaceOnUse"><stop offset="0.33" stop-color="#424143"/><stop offset="0.35" stop-color="#484749"/><stop offset="0.52" stop-color="#69696a"/><stop offset="0.61" stop-color="#767677"/></linearGradient><linearGradient id="linear-gradient-3" x1="40.74" y1="62.23" x2="40.74" y2="13.57" gradientUnits="userSpaceOnUse"><stop offset="0" stop-color="#fff"/><stop offset="0.17" stop-color="#eee"/><stop offset="0.49" stop-color="#c3c3c3"/><stop offset="0.83" stop-color="#919191"/></linearGradient><linearGradient id="New_Gradient_Swatch_2-4" x1="40.74" y1="19.16" x2="40.74" y2="13.57" xlink:href="#New_Gradient_Swatch_2"/><radialGradient id="radial-gradient" cx="-121.75" cy="168.61" r="13.65" gradientTransform="translate(117.51 -154.01) rotate(-12.74)" gradientUnits="userSpaceOnUse"><stop offset="0" stop-color="#c2c2c2"/><stop offset="0.43" stop-color="silver"/><stop offset="0.58" stop-color="#b9b9b9"/><stop offset="0.69" stop-color="#aeaeae"/><stop offset="0.78" stop-color="#9d9d9d"/><stop offset="0.83" stop-color="#8f8f8f"/></radialGradient><radialGradient id="New_Gradient_Swatch_4" cx="-121.83" cy="168.55" r="7.06" gradientTransform="translate(117.51 -154.01) rotate(-12.74)" gradientUnits="userSpaceOnUse"><stop offset="0.01" stop-color="#9e9e9e"/><stop offset="0.1" stop-color="#bbb"/><stop offset="0.22" stop-color="#d3d3d3"/><stop offset="0.34" stop-color="#e7e7e7"/><stop offset="0.49" stop-color="#f5f5f5"/><stop offset="0.67" stop-color="#fdfdfd"/><stop offset="1" stop-color="#fff"/></radialGradient></defs><g id="Vector_Graphics" data-name="Vector Graphics"><rect class="cls-1" x="83.67" y="13.57" width="54.07" height="48.66"/><rect class="cls-2" x="83.67" y="13.57" width="54.07" height="5.59"/><polygon points="129.8 61.37 136.66 54.61 136.66 61.37 129.8 61.37"/><path class="cls-3" d="M102.77,50.71c3.27.74,7.51-1.18,11.51-2.44,8.61-2.72,14.17-9.38,12.44-14.9S116.59,25.61,108,28.31,92.92,39.25,94.64,44.77a6.94,6.94,0,0,0,2.51,3.37"/><path class="cls-3" d="M102.45,50.72s-5.69,1.51-5.28-2.84c.46-4.77,8.06-3.05,6.76,0a52.23,52.23,0,0,0-2.28,8.76"/><rect class="cls-4" x="153.62" y="13.57" width="54.07" height="48.66"/><rect class="cls-5" x="153.62" y="13.57" width="54.07" height="5.59"/><polygon points="199.75 61.37 206.61 54.61 206.61 61.37 199.75 61.37"/><path class="cls-3" d="M178.39,50.54s-6.12-.94-4.2-4.87c2.11-4.3,8.48-.12,6.46,2.68s-5.35,7.12-5.35,7.12"/><polyline class="cls-3" points="174.19 45.67 165.17 25.19 185.95 32.74 196.14 22.94 196.14 42.17 180.93 47.36"/><rect class="cls-6" x="223.57" y="13.57" width="54.07" height="48.66"/><rect class="cls-7" x="223.57" y="13.57" width="54.07" height="5.59"/><polygon points="269.71 61.37 276.57 54.61 276.57 61.37 269.71 61.37"/><path class="cls-3" d="M246.35,52.65s-6.62-1-4.54-5.27c2.28-4.66,9.17-.13,7,2.89S243,58,243,58"/><polyline class="cls-8" points="242.66 46.17 238.54 27.56 269.17 42.62 249.41 47.85"/><path class="cls-9" d="M262.45,31.59c0-1.23-2.14-2.68-4.93-2.68h-4.26v5.4h4.26C260.31,34.31,262.45,32.84,262.45,31.59Z"/><rect class="cls-10" x="247.49" y="23.63" width="5.65" height="5.16"/><path class="cls-11" d="M253,23.75v4.91h-5.4V23.75H253m.25-.25h-5.9v5.41h5.9V23.5Z"/><rect class="cls-10" x="247.49" y="34.44" width="5.65" height="5.16"/><path class="cls-11" d="M253,34.56v4.91h-5.4V34.56H253m.25-.25h-5.9v5.41h5.9V34.31Z"/><path class="cls-12" d="M253.51,39.47V34.56h4c3,0,5.18-1.57,5.18-3s-2.21-2.93-5.18-2.93h-4V23.75h4c5.66,0,10.09,3.44,10.09,7.84s-4.43,7.88-10.09,7.88Z"/><path class="cls-13" d="M257.52,24c5.52,0,9.84,3.33,9.84,7.59s-4.32,7.63-9.84,7.63h-3.76V34.81h3.76c2.84,0,5.43-1.53,5.43-3.22s-2.59-3.18-5.43-3.18h-3.76V24h3.76m0-.5h-4.26v5.41h4.26c2.79,0,4.93,1.45,4.93,2.68s-2.14,2.72-4.93,2.72h-4.26v5.41h4.26c5.8,0,10.34-3.57,10.34-8.13s-4.54-8.09-10.34-8.09Z"/><rect class="cls-14" x="13.71" y="13.57" width="54.07" height="48.66"/><rect class="cls-15" x="13.71" y="13.57" width="54.07" height="5.59"/><polygon points="59.85 61.36 66.71 54.6 66.71 61.36 59.85 61.36"/><path class="cls-16" d="M42.23,47.37c.81.43,13.55,9.32,13.55,9.32s1.83,1.24,2.91-.35-.75-2.83-.75-2.83S45.11,44.39,44.35,43.8"/><polygon class="cls-17" points="29.03 43.17 21.73 39.88 27.42 34.24 26.62 26.28 34.34 28.39 40.84 23.71 42.87 31.45 50.17 34.74 44.49 40.38 45.29 48.34 37.57 46.23 31.07 50.91 29.03 43.17"/><path class="cls-11" d="M40.76,23.92l2,7.5,0,.12.11.05L50,34.78l-5.51,5.46-.08.09v.12l.77,7.72-7.48-2-.12,0-.09.07-6.3,4.53-2-7.5,0-.12L29,43,22,39.84l5.51-5.47.09-.08v-.12l-.78-7.72,7.49,2,.11,0,.1-.07,6.3-4.53m.15-.42-6.6,4.75-7.83-2.14.81,8.09-5.77,5.72,7.4,3.34L31,51.11l6.59-4.74,7.84,2.13-.81-8.08,5.77-5.72L43,31.36,40.91,23.5Z"/><rect class="cls-11" x="38.23" y="49.43" width="2.17" height="2.16" transform="translate(-10.16 9.9) rotate(-12.73)"/><rect class="cls-11" x="26.08" y="45.55" width="2.17" height="2.16" transform="translate(-9.62 7.14) rotate(-12.74)"/><rect class="cls-11" x="23.27" y="32.76" width="2.16" height="2.16" transform="matrix(0.98, -0.22, 0.22, 0.98, -6.87, 6.21)"/><rect class="cls-11" x="32.39" y="23.98" width="2.17" height="2.16" transform="translate(-4.7 8) rotate(-12.74)"/><rect class="cls-11" x="44.48" y="27.96" width="2.16" height="2.16" transform="translate(-5.29 10.77) rotate(-12.75)"/><rect class="cls-11" x="47.33" y="40.58" width="2.17" height="2.16" transform="translate(-7.99 11.69) rotate(-12.73)"/><rect class="cls-11" x="38.17" y="49.53" width="2.16" height="2.16" transform="translate(-10.21 9.92) rotate(-12.76)"/><path class="cls-18" d="M43.06,38.86c-.69,3.34-3.61-2.4-6.45-.52s1.22,7.08-2.11,6.39,2.32-3.77.44-6.62S28,39.26,28.67,35.92s3.86,2.43,6.68.52C37.44,35,34.24,29,37.58,29.71s-2.93,5.42-.7,7.24C39.84,39.37,43.74,35.53,43.06,38.86Z"/></g></svg>