<svg xmlns="http://www.w3.org/2000/svg" xmlns:xlink="http://www.w3.org/1999/xlink" viewBox="0 0 291.5 74.79"><defs><style>.cls-1,.cls-11,.cls-12,.cls-2{stroke:#767677;}.cls-1,.cls-11,.cls-12,.cls-16,.cls-2,.cls-3,.cls-4{stroke-miterlimit:10;}.cls-1{fill:url(#linear-gradient);}.cls-2{fill:url(#New_Gradient_Swatch_2);}.cls-3,.cls-4{fill:none;stroke:#424143;}.cls-16,.cls-3,.cls-4{stroke-width:0.75px;}.cls-4{stroke-dasharray:0.97 1.45;}.cls-5{fill:#2b2b2b;}.cls-6{fill:url(#New_Gradient_Swatch_5);}.cls-7{fill:url(#linear-gradient-2);}.cls-8{fill:url(#linear-gradient-3);}.cls-9{fill:#cbcbcb;}.cls-10{fill:#787878;}.cls-11{fill:url(#New_Gradient_Swatch_3);}.cls-12{fill:url(#linear-gradient-4);}.cls-13{fill:#424143;}.cls-14{fill:url(#linear-gradient-5);}.cls-15{fill:url(#radial-gradient);}.cls-16{stroke:#525252;fill:url(#linear-gradient-6);}</style><linearGradient id="linear-gradient" x1="112.08" y1="62.72" x2="112.08" y2="14.06" gradientUnits="userSpaceOnUse"><stop offset="0" stop-color="#fff"/><stop offset="0.17" stop-color="#eee"/><stop offset="0.49" stop-color="#c3c3c3"/><stop offset="0.83" stop-color="#919191"/></linearGradient><linearGradient id="New_Gradient_Swatch_2" x1="112.08" y1="19.65" x2="112.08" y2="14.06" gradientUnits="userSpaceOnUse"><stop offset="0.33" stop-color="#939598"/><stop offset="0.39" stop-color="#a3a5a7"/><stop offset="0.53" stop-color="#c5c6c8"/><stop offset="0.61" stop-color="#d2d3d4"/></linearGradient><linearGradient id="New_Gradient_Swatch_5" x1="98.04" y1="48.66" x2="116.57" y2="48.66" gradientUnits="userSpaceOnUse"><stop offset="0.33" stop-color="#595a5c"/><stop offset="0.47" stop-color="#49494a"/><stop offset="0.61" stop-color="#3d3d3d"/></linearGradient><linearGradient id="linear-gradient-2" x1="124.93" y1="37.35" x2="126.35" y2="21.07" gradientUnits="userSpaceOnUse"><stop offset="0.33" stop-color="#595a5c"/><stop offset="0.7" stop-color="#5d5d5e"/><stop offset="0.93" stop-color="#636363"/></linearGradient><linearGradient id="linear-gradient-3" x1="114.11" y1="29.12" x2="119.68" y2="47.33" gradientUnits="userSpaceOnUse"><stop offset="0.33" stop-color="#939598"/><stop offset="0.34" stop-color="#909295"/><stop offset="0.52" stop-color="#727273"/><stop offset="0.61" stop-color="#666"/></linearGradient><linearGradient id="New_Gradient_Swatch_3" x1="39.01" y1="62.6" x2="39.01" y2="13.94" gradientUnits="userSpaceOnUse"><stop offset="0" stop-color="#fff"/><stop offset="0.37" stop-color="#cdcdcd"/><stop offset="0.67" stop-color="#ababab"/><stop offset="0.83" stop-color="#9e9e9e"/></linearGradient><linearGradient id="linear-gradient-4" x1="39.01" y1="19.52" x2="39.01" y2="13.94" gradientUnits="userSpaceOnUse"><stop offset="0.33" stop-color="#838384"/><stop offset="0.43" stop-color="#a4a4a5"/><stop offset="0.55" stop-color="#c5c6c7"/><stop offset="0.61" stop-color="#d2d3d4"/></linearGradient><linearGradient id="linear-gradient-5" x1="34.17" y1="37.43" x2="44.16" y2="37.43" gradientUnits="userSpaceOnUse"><stop offset="0" stop-color="#b0b0b0"/><stop offset="0.02" stop-color="#b0b0b0"/><stop offset="0.12" stop-color="#b0b0b0"/><stop offset="0.13" stop-color="#a6a6a6"/><stop offset="0.15" stop-color="#878787"/><stop offset="0.18" stop-color="#6b6b6b"/><stop offset="0.21" stop-color="#555"/><stop offset="0.24" stop-color="#444"/><stop offset="0.28" stop-color="#393939"/><stop offset="0.34" stop-color="#323232"/><stop offset="0.5" stop-color="#303030"/><stop offset="0.66" stop-color="#323232"/><stop offset="0.72" stop-color="#393939"/><stop offset="0.76" stop-color="#444"/><stop offset="0.79" stop-color="#555"/><stop offset="0.82" stop-color="#6b6b6b"/><stop offset="0.84" stop-color="#878787"/><stop offset="0.87" stop-color="#a6a6a6"/><stop offset="0.87" stop-color="#b0b0b0"/><stop offset="0.89" stop-color="#b0b0b0"/><stop offset="1" stop-color="#b0b0b0"/></linearGradient><radialGradient id="radial-gradient" cx="119.41" cy="29.5" r="5.14" gradientTransform="translate(-70.55) scale(0.92 1)" gradientUnits="userSpaceOnUse"><stop offset="0" stop-color="#b0b0b0"/><stop offset="0.17" stop-color="#8d8d8d"/><stop offset="0.39" stop-color="#656565"/><stop offset="0.6" stop-color="#484848"/><stop offset="0.77" stop-color="#363636"/><stop offset="0.9" stop-color="#303030"/></radialGradient><linearGradient id="linear-gradient-6" x1="39.17" y1="52.02" x2="39.17" y2="43.13" gradientUnits="userSpaceOnUse"><stop offset="0.26" stop-color="#757575"/><stop offset="0.65" stop-color="#949494"/><stop offset="0.88" stop-color="#a1a1a1"/></linearGradient></defs><g id="Vector_Graphics" data-name="Vector Graphics"><rect class="cls-1" x="85.05" y="14.06" width="54.07" height="48.66"/><rect class="cls-2" x="85.05" y="14.06" width="54.07" height="5.59"/><polygon points="131.18 61.85 138.04 55.09 138.04 61.85 131.18 61.85"/><path class="cls-3" d="M96.11,49.22c-.23-.29-.44-.58-.65-.87"/><path class="cls-4" d="M93.94,45.61c-1.5-3.57-1.47-7.37-1.47-11.56,0-2.78.42-5.07,2.42-7.13s6.42-3.73,9.37-3c.82.21,1.44,1.06,2.13,1.62S110.57,28.39,113,30"/><path class="cls-3" d="M114.33,30.84l.9.59"/><path class="cls-5" d="M100.08,48.54a5.77,5.77,0,0,0,.38,8.22c2.52,2.35,6.65,2.41,8.74.28l8.24-8.37-9.57-8Z"/><path class="cls-5" d="M132.58,23.82c-2.59-2.49-6.44-2.68-8.6-.42l-5.74,6,9.41,9,5.72-6C135.53,30.14,135.17,26.3,132.58,23.82Z"/><path class="cls-6" d="M99.4,47.73c-2.07,2.1-1.74,5.69.75,8s6.19,2.49,8.26.39l8.16-8.28-9.28-8.13Z"/><path class="cls-7" d="M131.71,23.12c-2.57-2.45-6.37-2.64-8.51-.41l-5.67,5.92,9.3,8.89,5.66-5.91C134.62,29.37,134.27,25.58,131.71,23.12Z"/><polygon class="cls-5" points="106.67 40.36 116.68 49.44 127.53 38.2 117.51 29.05 106.67 40.36"/><polygon class="cls-8" points="106.58 39.33 116.48 48.31 127.29 37.38 117.3 28.14 106.58 39.33"/><rect class="cls-9" x="110.99" y="37.43" width="2.21" height="2.02"/><rect class="cls-9" x="115.23" y="41.41" width="2.21" height="2.02"/><rect class="cls-9" x="115.23" y="33.32" width="2.21" height="2.02"/><rect class="cls-9" x="119.3" y="37.43" width="2.21" height="2.02"/><rect class="cls-10" x="100.76" y="47.66" width="2.33" height="2.13"/><rect class="cls-10" x="105.29" y="51.93" width="2.21" height="2.02"/><rect class="cls-10" x="105.23" y="43.34" width="2.33" height="2.13"/><rect class="cls-10" x="109.51" y="47.66" width="2.33" height="2.13"/><rect class="cls-10" x="120.76" y="27.93" width="2.33" height="2.13"/><rect class="cls-10" x="125.22" y="32.12" width="2.33" height="2.13"/><rect class="cls-10" x="125.22" y="23.61" width="2.33" height="2.13"/><rect class="cls-10" x="129.5" y="27.93" width="2.33" height="2.13"/><rect class="cls-11" x="11.98" y="13.94" width="54.07" height="48.66"/><rect class="cls-12" x="11.98" y="13.94" width="54.07" height="5.59"/><polygon points="58.11 61.73 64.97 54.97 64.97 61.73 58.11 61.73"/><rect class="cls-13" x="25" y="52.07" width="28.34" height="2.68"/><path class="cls-14" d="M42.41,31.66c.06,1,.06,1.92.09,2.88s-.25,1.92-.21,2.89a6,6,0,0,0,.11.72c0,.24.14.48.63.72,1.1.48.86,1,1,1.44a5,5,0,0,1-.25,2.88H34.53a4.93,4.93,0,0,1-.26-2.88c.18-.48-.07-1,1-1.44.49-.24.6-.48.63-.72a4.48,4.48,0,0,0,.11-.72c0-1-.27-1.93-.2-2.89s0-1.92.08-2.88Z"/><path class="cls-15" d="M43.89,29.5a5,5,0,0,0-4.73-5.14,4.94,4.94,0,0,0-4.71,5.14,4.94,4.94,0,0,0,4.71,5.13A5,5,0,0,0,43.89,29.5Z"/><rect class="cls-16" x="23.52" y="43.13" width="31.3" height="8.89"/></g></svg>